<?xml version="1.0"?>
<svg xmlns="http://www.w3.org/2000/svg" viewBox="0 0 64 64" width="512" height="512"><g id="flat"><rect x="23" y="46" width="20" height="8" style="fill:#d3843d"/><rect x="3" y="38" width="10" height="8" style="fill:#d3843d"/><rect x="23" y="30" width="20" height="8" style="fill:#d3843d"/><rect x="43" y="46" width="18" height="8" style="fill:#f3bb59"/><rect x="13" y="38" width="20" height="8" style="fill:#f3bb59"/><rect x="33" y="22" width="20" height="8" style="fill:#f3bb59"/><rect x="7" y="10" width="20" height="8" style="fill:#f3bb59"/><rect x="3" y="46" width="20" height="8" style="fill:#b5554e"/><rect x="6" y="49" width="2" height="2" style="fill:#f3bb59"/><rect x="18" y="49" width="2" height="2" style="fill:#f3bb59"/><rect x="26" y="49" width="2" height="2" style="fill:#f3bb59"/><rect x="38" y="49" width="2" height="2" style="fill:#f3bb59"/><rect x="46" y="49" width="2" height="2" style="fill:#b5554e"/><rect x="56" y="49" width="2" height="2" style="fill:#b5554e"/><rect x="16" y="41" width="2" height="2" style="fill:#b5554e"/><rect x="28" y="41" width="2" height="2" style="fill:#b5554e"/><rect x="33" y="38" width="20" height="8" style="fill:#b5554e"/><rect x="36" y="41" width="2" height="2" style="fill:#f3bb59"/><rect x="48" y="41" width="2" height="2" style="fill:#f3bb59"/><rect x="8" y="41" width="2" height="2" style="fill:#f3bb59"/><rect x="3" y="30" width="20" height="8" style="fill:#b5554e"/><rect x="6" y="33" width="2" height="2" style="fill:#f3bb59"/><rect x="18" y="33" width="2" height="2" style="fill:#f3bb59"/><rect x="26" y="33" width="2" height="2" style="fill:#f3bb59"/><rect x="38" y="33" width="2" height="2" style="fill:#f3bb59"/><rect x="36" y="25" width="2" height="2" style="fill:#b5554e"/><rect x="48" y="25" width="2" height="2" style="fill:#b5554e"/><rect x="10" y="13" width="2" height="2" style="fill:#b5554e"/><rect x="22" y="13" width="2" height="2" style="fill:#b5554e"/><rect x="10" y="21" width="2" height="4" style="fill:#bfbfbf"/><rect x="14" y="21" width="2" height="4" style="fill:#bfbfbf"/><rect x="18" y="21" width="2" height="4" style="fill:#bfbfbf"/><rect x="22" y="21" width="2" height="4" style="fill:#bfbfbf"/></g></svg>
