<?xml version="1.0"?>
<svg xmlns="http://www.w3.org/2000/svg" viewBox="0 0 64 64" width="512" height="512"><g id="flat"><path d="M32,17h0A26,26,0,0,1,58,43v2a0,0,0,0,1,0,0H6a0,0,0,0,1,0,0V43A26,26,0,0,1,32,17Z" style="fill:#fcf05a"/><rect x="3" y="45" width="58" height="6" style="fill:#d3843d"/><polygon points="22 34 14 34 12 20 20 16 22 34" style="fill:#f3bb59"/><polygon points="42 34 50 34 52 20 44 16 42 34" style="fill:#f3bb59"/><polygon points="37 45 27 45 25 13 39 13 37 45" style="fill:#f3bb59"/><rect x="6" y="40" width="5" height="2" style="fill:#f3bb59"/><rect x="13" y="40" width="2" height="2" style="fill:#f3bb59"/><rect x="53" y="40" width="2" height="2" style="fill:#f3bb59"/><rect x="31" y="31" width="2" height="14" style="fill:#fff"/></g></svg>
