<?xml version="1.0"?>
<svg xmlns="http://www.w3.org/2000/svg" viewBox="0 0 64 64" width="512" height="512"><g id="flat"><path d="M34,42v8a2,2,0,0,1-2,2H30a2,2,0,0,1-2-2V42H24v8a6,6,0,0,0,6,6h2a6,6,0,0,0,6-6V42Z" style="fill:#bfbfbf"/><path d="M54,14H53V13a4,4,0,0,0-4-4,4.193,4.193,0,0,0-4,4,3.14,3.14,0,0,0-2-1,2.7,2.7,0,0,0-2,1,4.249,4.249,0,0,0-4-3,4,4,0,0,0-4,4H32a3,3,0,0,0-3,3v3H57V17A3,3,0,0,0,54,14Z" style="fill:#d3843d"/><polygon points="57 38 25 38 21 20 61 20 57 38" style="fill:#bfbfbf"/><rect x="3" y="20" width="11" height="4" style="fill:#6b809b"/><rect x="36" y="15" width="2" height="2" style="fill:#f1d77e"/><rect x="48" y="13" width="2" height="2" style="fill:#f1d77e"/><polygon points="33 35 27.198 35 25.024 25.217 26.976 24.783 28.802 33 33 33 33 35" style="fill:#fff"/><rect x="35" y="33" width="2" height="2" style="fill:#fff"/><polygon points="21.889 24 14 24 14 20 21 20 21.889 24" style="fill:#e8e8e8"/><polygon points="57 42 57 49 49 49 49 53 61 53 61 49 61 42 57 42" style="fill:#e8e8e8"/><rect x="24" y="38" width="37" height="4" style="fill:#6b809b"/><circle cx="47" cy="51" r="5" style="fill:#6b809b"/></g></svg>
